<?xml version="1.0" encoding="UTF-8" standalone="no"?>
<!-- Created with Inkscape (http://www.inkscape.org/) -->

<svg
   xmlns:dc="http://purl.org/dc/elements/1.1/"
   xmlns:cc="http://creativecommons.org/ns#"
   xmlns:rdf="http://www.w3.org/1999/02/22-rdf-syntax-ns#"
   xmlns:svg="http://www.w3.org/2000/svg"
   xmlns="http://www.w3.org/2000/svg"
   xmlns:sodipodi="http://sodipodi.sourceforge.net/DTD/sodipodi-0.dtd"
   xmlns:inkscape="http://www.inkscape.org/namespaces/inkscape"
   width="211.27589mm"
   height="67.34124mm"
   viewBox="0 0 211.27589 67.341241"
   version="1.1"
   id="svg8"
   inkscape:version="0.92.4 (5da689c313, 2019-01-14)"
   sodipodi:docname="Repo_logo.svg"
   inkscape:export-filename="C:\Users\ko40\Desktop\logo.png"
   inkscape:export-xdpi="96"
   inkscape:export-ydpi="96">
  <defs
     id="defs2" />
  <sodipodi:namedview
     id="base"
     pagecolor="#ffffff"
     bordercolor="#666666"
     borderopacity="1.0"
     inkscape:pageopacity="0.0"
     inkscape:pageshadow="2"
     inkscape:zoom="1.2175147"
     inkscape:cx="430.41244"
     inkscape:cy="127.68512"
     inkscape:document-units="mm"
     inkscape:current-layer="layer1"
     showgrid="false"
     inkscape:window-width="1920"
     inkscape:window-height="1017"
     inkscape:window-x="-8"
     inkscape:window-y="-8"
     inkscape:window-maximized="1"
     showguides="false" />
  <metadata
     id="metadata5">
    <rdf:RDF>
      <cc:Work
         rdf:about="">
        <dc:format>image/svg+xml</dc:format>
        <dc:type
           rdf:resource="http://purl.org/dc/dcmitype/StillImage" />
        <dc:title></dc:title>
      </cc:Work>
    </rdf:RDF>
  </metadata>
  <g
     inkscape:label="Layer 1"
     inkscape:groupmode="layer"
     id="layer1"
     transform="translate(1.0913797,-76.63621)">
    <g
       id="g968"
       transform="matrix(1.0214771,0,0,1.0214771,144.80998,77.619564)"
       inkscape:export-xdpi="96"
       inkscape:export-ydpi="96">
      <g
         id="Layer_1">
        <g
           id="g897">
          <circle
             id="circle895"
             r="32"
             cy="32"
             cx="32"
             class="st0"
             style="fill:#76c2af" />
        </g>
        <g
           id="g901"
           class="st1"
           style="opacity:0.2">
          <path
             id="path899"
             d="M 49.9,46.2 35.8,32.1 c -1,-1 -2.5,-1.4 -3.8,-1 l -8.1,-8 -3,-5.9 -5.9,-3 -2.9,2.8 3,5.9 5.9,3 v 0 l 8.1,8 c -0.4,1.3 0,2.8 1,3.8 l 14.1,14.1 c 1.6,1.6 4.1,1.6 5.7,0 1.6,-1.5 1.6,-4 0,-5.6 z"
             class="st2"
             inkscape:connector-curvature="0"
             style="fill:#231f20" />
        </g>
        <g
           id="g905">
          <polygon
             id="polygon903"
             points="37.4,34.5 34.5,37.3 18.4,21.4 21.3,18.6 "
             class="st3"
             style="fill:#4f5d73" />
        </g>
        <g
           id="g909">
          <path
             id="path907"
             d="m 49.9,49.9 c -1.6,1.6 -4.1,1.6 -5.7,0 L 30.1,35.8 c -1.6,-1.6 -1.6,-4.1 0,-5.7 v 0 c 1.6,-1.6 4.1,-1.6 5.7,0 l 14.1,14.1 c 1.6,1.6 1.6,4.1 0,5.7 z"
             class="st4"
             inkscape:connector-curvature="0"
             style="fill:#f5cf87" />
        </g>
        <g
           id="g913"
           class="st1"
           style="opacity:0.2">
          <path
             id="path911"
             d="m 53.3,18.4 -6.5,6.5 c -1.6,1.6 -4.1,1.6 -5.7,0 -1.6,-1.6 -1.6,-4.1 0,-5.7 l 6.5,-6.5 C 46.5,12.3 45.3,12 44,12 c -5.5,0 -10,4.5 -10,10 0,1.3 0.3,2.5 0.7,3.6 l -11,11 C 22.5,36.3 21.3,36 20,36 c -5.5,0 -10,4.5 -10,10 0,1.3 0.3,2.5 0.7,3.6 l 6.5,-6.5 c 1.6,-1.6 4.1,-1.6 5.7,0 1.6,1.6 1.6,4.1 0,5.7 l -6.5,6.5 c 1.1,0.4 2.4,0.7 3.6,0.7 5.5,0 10,-4.5 10,-10 0,-1.3 -0.3,-2.5 -0.7,-3.6 l 11,-11 c 1.1,0.4 2.4,0.7 3.6,0.7 5.5,0 10,-4.5 10,-10 0.1,-1.4 -0.2,-2.6 -0.6,-3.7 z"
             class="st2"
             inkscape:connector-curvature="0"
             style="fill:#231f20" />
        </g>
        <g
           id="g917">
          <rect
             id="rect915"
             height="8"
             width="17.1"
             class="st5"
             transform="matrix(0.7071,-0.7071,0.7071,0.7071,-13.2548,32)"
             y="28"
             x="23.4"
             style="fill:#ffffff" />
        </g>
        <g
           id="g921">
          <polygon
             id="polygon919"
             points="14.9,12.1 20.8,15.2 23.9,21.1 21,23.9 15.1,20.9 12.1,15 "
             class="st3"
             style="fill:#4f5d73" />
        </g>
        <g
           id="g927">
          <g
             id="g925">
            <path
               id="path923"
               d="m 46.8,22.8 c -1.6,1.6 -4.1,1.6 -5.7,0 -1.6,-1.6 -1.6,-4.1 0,-5.7 l 6.5,-6.5 C 46.5,10.3 45.3,10 44,10 c -5.5,0 -10,4.5 -10,10 0,5.5 4.5,10 10,10 5.5,0 10,-4.5 10,-10 0,-1.3 -0.3,-2.5 -0.7,-3.6 z"
               class="st5"
               inkscape:connector-curvature="0"
               style="fill:#ffffff" />
          </g>
        </g>
        <g
           id="g933">
          <g
             id="g931">
            <path
               id="path929"
               d="m 17.2,41.2 c 1.6,-1.6 4.1,-1.6 5.7,0 1.6,1.6 1.6,4.1 0,5.7 l -6.5,6.5 c 1.1,0.4 2.4,0.7 3.6,0.7 5.5,0 10,-4.5 10,-10 0,-5.5 -4.5,-10 -10,-10 -5.5,0 -10,4.5 -10,10 0,1.3 0.3,2.5 0.7,3.6 z"
               class="st5"
               inkscape:connector-curvature="0"
               style="fill:#ffffff" />
          </g>
        </g>
      </g>
      <g
         id="Layer_2" />
    </g>
    <g
       id="g894">
      <flowRoot
         inkscape:export-ydpi="96"
         inkscape:export-xdpi="96"
         transform="matrix(0.26458333,0,0,0.26458333,-10.790304,71.312483)"
         style="font-style:normal;font-variant:normal;font-weight:normal;font-stretch:normal;font-size:26.66666603px;line-height:1.25;font-family:Arial;-inkscape-font-specification:Arial;text-align:center;letter-spacing:0px;word-spacing:0px;text-anchor:middle;fill:#1c2f3a;fill-opacity:1;stroke:none"
         id="flowRoot1000"
         xml:space="preserve"><flowRegion
           style="fill:#1c2f3a;fill-opacity:1"
           id="flowRegion1002"><rect
             style="fill:#1c2f3a;fill-opacity:1"
             y="250.43222"
             x="294.34561"
             height="31.560041"
             width="291.76935"
             id="rect1004" /></flowRegion><flowPara
           style="font-size:16px;fill:#1c2f3a;fill-opacity:1"
           id="flowPara1006">www.ift.uam-csic.es</flowPara></flowRoot>      <path
         inkscape:connector-curvature="0"
         id="path1026"
         d="M -1.0913797,89.891266 C -0.97087922,90.493767 70.244918,76.63621 70.244918,76.63621 l 62.298762,9.037539 -61.334758,19.159581 z"
         style="fill:#1c2f3a;fill-opacity:1;stroke:none;stroke-width:0.26458332px;stroke-linecap:butt;stroke-linejoin:miter;stroke-opacity:1" />
      <path
         inkscape:connector-curvature="0"
         id="path1028"
         d="m 19.759005,94.324627 0.170416,17.126553 h 2.641407 V 94.750661 Z"
         style="fill:#1c2f3a;fill-opacity:1;stroke:none;stroke-width:0.26458332px;stroke-linecap:butt;stroke-linejoin:miter;stroke-opacity:1" />
      <path
         sodipodi:nodetypes="ccccc"
         inkscape:connector-curvature="0"
         id="path1030"
         d="m 17.288012,114.00738 2.811822,9.41534 c 1.455121,0.17666 1.893723,0.0484 2.598803,0 l 2.5136,-9.24492 c -1.663496,-0.93689 -3.869529,-1.38551 -7.924225,-0.17042 z"
         style="fill:#1c2f3a;fill-opacity:1;stroke:none;stroke-width:0.26458332px;stroke-linecap:butt;stroke-linejoin:miter;stroke-opacity:1" />
      <path
         sodipodi:nodetypes="ccccc"
         inkscape:connector-curvature="0"
         id="path1032"
         d="m 19.673799,124.53041 c 1.437521,-0.19332 2.351409,-0.12482 3.152651,0 l 5.240213,17.46738 c -3.706365,1.69518 -7.477879,2.52713 -11.502909,0 z"
         style="fill:#1c2f3a;fill-opacity:1;stroke:none;stroke-width:0.26458332px;stroke-linecap:butt;stroke-linejoin:miter;stroke-opacity:1" />
      <ellipse
         ry="1.5763243"
         rx="3.7703974"
         cy="89.212219"
         cx="70.350494"
         id="path1034"
         style="opacity:1;fill:#ffffff;fill-opacity:1;fill-rule:evenodd;stroke:none;stroke-width:0.40000001;stroke-miterlimit:4;stroke-dasharray:none;stroke-dashoffset:0;stroke-opacity:1" />
      <path
         sodipodi:nodetypes="cccccc"
         inkscape:connector-curvature="0"
         id="path1036"
         d="m 34.244149,98.755379 37.490958,7.753811 33.912273,-10.821256 c 2.56803,11.502686 4.02064,22.295566 4.08993,32.208146 -31.683994,23.54575 -55.763772,17.51955 -77.282501,1.53372 -0.394207,-10.30109 -0.695424,-20.59503 1.78934,-30.674421 z"
         style="fill:#1c2f3a;fill-opacity:1;stroke:none;stroke-width:0.26458332px;stroke-linecap:butt;stroke-linejoin:miter;stroke-opacity:1" />
      <path
         inkscape:connector-curvature="0"
         id="path1038"
         d="m 72.757589,134.20137 5.751452,-0.17041 0.383431,5.32542 -5.921867,0.80946 z"
         style="fill:#f5f5f5;fill-opacity:1;stroke:none;stroke-width:0.26458332px;stroke-linecap:butt;stroke-linejoin:miter;stroke-opacity:1" />
      <path
         inkscape:connector-curvature="0"
         id="path1040"
         d="m 102.32432,125.85111 -0.0426,4.38815 4.77157,-3.02484 -0.17041,-2.93963 z"
         style="fill:#f0f0f0;fill-opacity:1;stroke:none;stroke-width:0.26458332px;stroke-linecap:butt;stroke-linejoin:miter;stroke-opacity:1" />
      <path
         sodipodi:nodetypes="cccc"
         inkscape:connector-curvature="0"
         id="path1044"
         d="m 82.087723,108.55415 v 30.20578 c 7.916287,-2.62501 17.076424,-3.1572 18.149037,-17.29696 0.3926,-7.88776 -4.474942,-12.8485 -18.149037,-12.90882 z"
         style="fill:#ffffff;fill-opacity:1;stroke:none;stroke-width:0.26458332px;stroke-linecap:butt;stroke-linejoin:miter;stroke-opacity:1" />
      <path
         sodipodi:nodetypes="cccc"
         inkscape:connector-curvature="0"
         id="path1042"
         d="m 88.00959,115.37069 0.08521,15.46502 c 3.07166,-0.67322 6.142489,-1.3481 6.220092,-8.00943 0.01517,-4.14193 -1.132224,-7.37403 -6.305302,-7.45559 z"
         style="fill:#1c2f3a;fill-opacity:1;stroke:none;stroke-width:0.26458332px;stroke-linecap:butt;stroke-linejoin:miter;stroke-opacity:1" />
      <path
         sodipodi:nodetypes="cccccccc"
         inkscape:connector-curvature="0"
         id="path1046"
         d="m 35.351838,112.13283 v 15.59283 l 6.049676,3.96211 0.08521,-7.28517 c 5.284006,2.07847 7.869205,0.99791 9.287533,-1.44851 0.55888,-2.24439 1.273658,-4.2636 0.852067,-7.92423 -0.928319,-1.88544 -0.63329,-3.93185 -5.623644,-5.28282 -2.011081,-0.0293 -5.459384,0.71132 -10.650842,2.38579 z"
         style="fill:#ffffff;fill-opacity:1;stroke:none;stroke-width:0.26458332px;stroke-linecap:butt;stroke-linejoin:miter;stroke-opacity:1" />
      <path
         sodipodi:nodetypes="cccc"
         inkscape:connector-curvature="0"
         id="path1048"
         d="m 41.188498,115.02986 0.0426,4.81418 c 2.750936,0.80476 4.750473,0.62943 4.899385,-1.95975 -0.0053,-1.94665 -1.199236,-3.17291 -4.941985,-2.85443 z"
         style="fill:#1c2f3a;fill-opacity:1;stroke:none;stroke-width:0.26458332px;stroke-linecap:butt;stroke-linejoin:miter;stroke-opacity:1" />
      <path
         sodipodi:nodetypes="ccccccccccc"
         inkscape:connector-curvature="0"
         id="path1050"
         d="m 54.39554,108.76717 0.468636,29.52413 c 2.23609,0.66265 3.687767,0.83504 5.027197,0.93727 l 0.383431,-13.76088 c 1.365065,-2.91214 2.554434,-2.896 3.57868,-0.12781 l 0.08521,14.48514 c 1.743945,0.494 3.59835,0.54617 5.453229,0.59644 l 0.170413,-18.36204 c -1.632626,-3.76415 -2.218706,-9.4639 -9.713566,-2.38579 l 0.213016,-10.99167 z"
         style="fill:#ffffff;fill-opacity:1;stroke:none;stroke-width:0.26458332px;stroke-linecap:butt;stroke-linejoin:miter;stroke-opacity:1" />
      <path
         sodipodi:nodetypes="cc"
         inkscape:connector-curvature="0"
         id="path1054"
         d="m 68.880681,118.97067 c 0.463465,1.06093 0.257388,-0.59996 1.192895,7.13607"
         style="fill:none;stroke:#1c2f3a;stroke-width:0.26458332px;stroke-linecap:butt;stroke-linejoin:miter;stroke-opacity:1" />
    </g>
  </g>
  <style
     id="style893"
     type="text/css">
	.st0{fill:#76C2AF;}
	.st1{opacity:0.2;}
	.st2{fill:#231F20;}
	.st3{fill:#4F5D73;}
	.st4{fill:#F5CF87;}
	.st5{fill:#FFFFFF;}
</style>
</svg>
